# xmcd
#
# Track frame offsets:
#	150
#	8385
#	22887
#	44787
#	66519
#	85600
#	91249
#	111525
#	131284
#	134408
#	154384
#	178545
#	197205
#	214725
#	232474
#	245824
#	266482
#	269504
#	283240
#	304241
#	322544
#
# Disc length: 4696 seconds
#
# Revision: 1
# Processed by: cddbd v1.5.2PL0 Copyright (c) Steve Scherf et al.
# Submitted via: audiograbber 1.83.01
#
DISCID=39125615
DTITLE=DeinEltan - Kopfschuss
DYEAR=1900
DGENRE=
TTITLE0=Intro
TTITLE1=Kopfschuss
TTITLE2=Clubzerstörerr (feat. Killah Konkret and Raper Pimp)
TTITLE3=Die Strassen brennen
TTITLE4=Down 6T5 (feat. Greg and Atilla Knight
TTITLE5=Hydro Skit
TTITLE6=Räuberei
TTITLE7=Fick die Cops
TTITLE8=Zwischenspiel
TTITLE9=High wie wir
TTITLE10=Pack deine Sachen (feat. Greg)
TTITLE11=Andy Stange (feat. Smoky)
TTITLE12=Ellenbogen raus
TTITLE13=Keine Killa
TTITLE14=Rapresente (feat. Kollegah)
TTITLE15=Komm Klar (feat. Greg)
TTITLE16=Pimp Skit
TTITLE17=Pimp Daddy (feat. Atilla Knight)
TTITLE18=Lines and Rum (feat. Raper Pimp and Killah Konkret)
TTITLE19=Ziegelsteine
TTITLE20=Fick die Cops Reloaded (feat. Raper Pimp, Illa, Smoky, Kimba and Nord)
EXTD=
EXTT0=
EXTT1=
EXTT2=
EXTT3=
EXTT4=
EXTT5=
EXTT6=
EXTT7=
EXTT8=
EXTT9=
EXTT10=
EXTT11=
EXTT12=
EXTT13=
EXTT14=
EXTT15=
EXTT16=
EXTT17=
EXTT18=
EXTT19=
EXTT20=
PLAYORDER=
